<mxfile host="65bd71144e">
    <diagram id="tfyhWYF7amdkLkkBPZPS" name="Page-1">
        <mxGraphModel dx="2913" dy="985" grid="1" gridSize="10" guides="1" tooltips="1" connect="1" arrows="1" fold="1" page="1" pageScale="1" pageWidth="1920" pageHeight="1200" background="none" math="0" shadow="0" adaptiveColors="auto">
            <root>
                <mxCell id="0"/>
                <mxCell id="1" parent="0"/>
                <mxCell id="2" value="" style="ellipse;whiteSpace=wrap;html=1;aspect=fixed;rounded=0;fillColor=#d5e8d4;strokeColor=#82b366;" parent="1" vertex="1">
                    <mxGeometry x="50" y="220" width="80" height="80" as="geometry"/>
                </mxCell>
                <mxCell id="12" style="edgeStyle=orthogonal;html=1;entryX=0.5;entryY=0;entryDx=0;entryDy=0;rounded=0;" parent="1" source="4" target="8" edge="1">
                    <mxGeometry relative="1" as="geometry"/>
                </mxCell>
                <mxCell id="4" value="" style="ellipse;whiteSpace=wrap;html=1;aspect=fixed;rounded=0;fillColor=#d5e8d4;strokeColor=#82b366;" parent="1" vertex="1">
                    <mxGeometry x="429" y="220" width="80" height="80" as="geometry"/>
                </mxCell>
                <mxCell id="65" style="edgeStyle=orthogonal;html=1;entryX=0.5;entryY=0;entryDx=0;entryDy=0;rounded=0;" parent="1" source="5" target="64" edge="1">
                    <mxGeometry relative="1" as="geometry"/>
                </mxCell>
                <mxCell id="5" value="" style="aspect=fixed;pointerEvents=1;shadow=0;dashed=0;html=1;strokeColor=none;labelPosition=center;verticalLabelPosition=bottom;verticalAlign=top;align=center;fillColor=light-dark(#5c5c5c, #bfd3ff);shape=mxgraph.mscae.enterprise.tool;rounded=0;gradientColor=none;strokeWidth=1;fillStyle=solid;" parent="1" vertex="1">
                    <mxGeometry x="65" y="580" width="50" height="45" as="geometry"/>
                </mxCell>
                <mxCell id="68" style="edgeStyle=orthogonal;html=1;entryX=0.5;entryY=0;entryDx=0;entryDy=0;rounded=0;" parent="1" source="6" target="76" edge="1">
                    <mxGeometry relative="1" as="geometry"/>
                </mxCell>
                <mxCell id="6" value="" style="aspect=fixed;pointerEvents=1;shadow=0;dashed=0;html=1;strokeColor=none;labelPosition=center;verticalLabelPosition=bottom;verticalAlign=top;align=center;fillColor=light-dark(#5c5c5c, #bfd3ff);shape=mxgraph.mscae.enterprise.tool;rounded=0;gradientColor=none;strokeWidth=1;fillStyle=solid;" parent="1" vertex="1">
                    <mxGeometry x="364" y="727" width="50" height="45" as="geometry"/>
                </mxCell>
                <mxCell id="67" style="edgeStyle=orthogonal;html=1;entryX=0.5;entryY=0;entryDx=0;entryDy=0;rounded=0;" parent="1" source="7" target="76" edge="1">
                    <mxGeometry relative="1" as="geometry"/>
                </mxCell>
                <mxCell id="7" value="" style="aspect=fixed;pointerEvents=1;shadow=0;dashed=0;html=1;strokeColor=none;labelPosition=center;verticalLabelPosition=bottom;verticalAlign=top;align=center;fillColor=light-dark(#5c5c5c, #bfd3ff);shape=mxgraph.mscae.enterprise.tool;rounded=0;gradientColor=none;strokeWidth=1;fillStyle=solid;" parent="1" vertex="1">
                    <mxGeometry x="524" y="727" width="50" height="45" as="geometry"/>
                </mxCell>
                <mxCell id="13" style="edgeStyle=orthogonal;html=1;rounded=0;" parent="1" source="8" target="7" edge="1">
                    <mxGeometry relative="1" as="geometry"/>
                </mxCell>
                <mxCell id="8" value="" style="rhombus;whiteSpace=wrap;html=1;rounded=0;" parent="1" vertex="1">
                    <mxGeometry x="429" y="420" width="80" height="80" as="geometry"/>
                </mxCell>
                <mxCell id="11" style="edgeStyle=orthogonal;html=1;exitX=0.5;exitY=1;exitDx=0;exitDy=0;entryX=0.5;entryY=0;entryDx=0;entryDy=0;rounded=0;" parent="1" source="2" target="5" edge="1">
                    <mxGeometry relative="1" as="geometry"/>
                </mxCell>
                <mxCell id="14" style="edgeStyle=orthogonal;html=1;entryX=0.5;entryY=0;entryDx=0;entryDy=0;rounded=0;" parent="1" source="8" target="6" edge="1">
                    <mxGeometry relative="1" as="geometry"/>
                </mxCell>
                <mxCell id="16" value="" style="ellipse;whiteSpace=wrap;html=1;aspect=fixed;rounded=0;fillColor=#d5e8d4;strokeColor=#82b366;" parent="1" vertex="1">
                    <mxGeometry x="790" y="220" width="80" height="80" as="geometry"/>
                </mxCell>
                <mxCell id="20" value="" style="aspect=fixed;pointerEvents=1;shadow=0;dashed=0;html=1;strokeColor=none;labelPosition=center;verticalLabelPosition=bottom;verticalAlign=top;align=center;fillColor=light-dark(#5c5c5c, #bfd3ff);shape=mxgraph.mscae.enterprise.tool;rounded=0;gradientColor=none;strokeWidth=1;fillStyle=solid;" parent="1" vertex="1">
                    <mxGeometry x="805" y="430" width="50" height="45" as="geometry"/>
                </mxCell>
                <mxCell id="70" style="edgeStyle=orthogonal;html=1;rounded=0;entryX=0.5;entryY=0;entryDx=0;entryDy=0;" parent="1" source="21" target="85" edge="1">
                    <mxGeometry relative="1" as="geometry">
                        <mxPoint x="830" y="830" as="targetPoint"/>
                    </mxGeometry>
                </mxCell>
                <mxCell id="21" value="" style="aspect=fixed;pointerEvents=1;shadow=0;dashed=0;html=1;strokeColor=none;labelPosition=center;verticalLabelPosition=bottom;verticalAlign=top;align=center;fillColor=light-dark(#5c5c5c, #bfd3ff);shape=mxgraph.mscae.enterprise.tool;rounded=0;gradientColor=none;strokeWidth=1;fillStyle=solid;" parent="1" vertex="1">
                    <mxGeometry x="805" y="650" width="50" height="45" as="geometry"/>
                </mxCell>
                <mxCell id="23" style="edgeStyle=orthogonal;html=1;entryX=0.5;entryY=0;entryDx=0;entryDy=0;rounded=0;" parent="1" source="16" target="20" edge="1">
                    <mxGeometry relative="1" as="geometry"/>
                </mxCell>
                <mxCell id="25" style="edgeStyle=orthogonal;html=1;rounded=0;entryX=0.503;entryY=0.087;entryDx=0;entryDy=0;entryPerimeter=0;" parent="1" target="21" edge="1">
                    <mxGeometry relative="1" as="geometry">
                        <mxPoint x="830" y="490" as="sourcePoint"/>
                        <mxPoint x="830" y="630" as="targetPoint"/>
                    </mxGeometry>
                </mxCell>
                <mxCell id="29" style="edgeStyle=orthogonal;html=1;entryX=0.5;entryY=0;entryDx=0;entryDy=0;rounded=0;" parent="1" source="26" target="28" edge="1">
                    <mxGeometry relative="1" as="geometry"/>
                </mxCell>
                <mxCell id="26" value="" style="ellipse;whiteSpace=wrap;html=1;aspect=fixed;rounded=0;fillColor=#d5e8d4;strokeColor=#82b366;" parent="1" vertex="1">
                    <mxGeometry x="1240" y="220" width="80" height="80" as="geometry"/>
                </mxCell>
                <mxCell id="31" style="edgeStyle=orthogonal;html=1;exitX=0;exitY=1;exitDx=0;exitDy=0;entryX=0.5;entryY=0;entryDx=0;entryDy=0;rounded=0;" parent="1" source="28" target="32" edge="1">
                    <mxGeometry relative="1" as="geometry"/>
                </mxCell>
                <mxCell id="61" style="edgeStyle=orthogonal;html=1;exitX=1;exitY=1;exitDx=0;exitDy=0;entryX=0.5;entryY=0;entryDx=0;entryDy=0;rounded=0;" parent="1" source="28" target="55" edge="1">
                    <mxGeometry relative="1" as="geometry"/>
                </mxCell>
                <mxCell id="28" value="" style="rhombus;whiteSpace=wrap;html=1;rounded=0;" parent="1" vertex="1">
                    <mxGeometry x="1240" y="374" width="80" height="80" as="geometry"/>
                </mxCell>
                <mxCell id="38" style="edgeStyle=orthogonal;html=1;entryX=0.5;entryY=0;entryDx=0;entryDy=0;rounded=0;" parent="1" source="32" target="37" edge="1">
                    <mxGeometry relative="1" as="geometry"/>
                </mxCell>
                <mxCell id="32" value="" style="aspect=fixed;pointerEvents=1;shadow=0;dashed=0;html=1;strokeColor=none;labelPosition=center;verticalLabelPosition=bottom;verticalAlign=top;align=center;fillColor=light-dark(#5c5c5c, #bfd3ff);shape=mxgraph.mscae.enterprise.tool;rounded=0;gradientColor=none;strokeWidth=1;fillStyle=solid;" parent="1" vertex="1">
                    <mxGeometry x="1130" y="549" width="50" height="45" as="geometry"/>
                </mxCell>
                <mxCell id="37" value="" style="rhombus;whiteSpace=wrap;html=1;rounded=0;" parent="1" vertex="1">
                    <mxGeometry x="1115" y="664" width="80" height="80" as="geometry"/>
                </mxCell>
                <mxCell id="41" value="" style="aspect=fixed;pointerEvents=1;shadow=0;dashed=0;html=1;strokeColor=none;labelPosition=center;verticalLabelPosition=bottom;verticalAlign=top;align=center;fillColor=light-dark(#5c5c5c, #bfd3ff);shape=mxgraph.mscae.enterprise.tool;rounded=0;gradientColor=none;strokeWidth=1;fillStyle=solid;" parent="1" vertex="1">
                    <mxGeometry x="1060" y="814" width="50" height="45" as="geometry"/>
                </mxCell>
                <mxCell id="42" style="edgeStyle=orthogonal;html=1;exitX=0;exitY=1;exitDx=0;exitDy=0;entryX=0.5;entryY=0;entryDx=0;entryDy=0;rounded=0;" parent="1" source="37" target="41" edge="1">
                    <mxGeometry relative="1" as="geometry"/>
                </mxCell>
                <mxCell id="43" value="" style="aspect=fixed;pointerEvents=1;shadow=0;dashed=0;html=1;strokeColor=none;labelPosition=center;verticalLabelPosition=bottom;verticalAlign=top;align=center;fillColor=light-dark(#5c5c5c, #bfd3ff);shape=mxgraph.mscae.enterprise.tool;rounded=0;gradientColor=none;strokeWidth=1;fillStyle=solid;" parent="1" vertex="1">
                    <mxGeometry x="1195" y="814" width="50" height="45" as="geometry"/>
                </mxCell>
                <mxCell id="44" style="edgeStyle=orthogonal;html=1;exitX=1;exitY=1;exitDx=0;exitDy=0;entryX=0.5;entryY=0;entryDx=0;entryDy=0;rounded=0;" parent="1" source="37" target="43" edge="1">
                    <mxGeometry relative="1" as="geometry"/>
                </mxCell>
                <mxCell id="54" style="edgeStyle=orthogonal;html=1;entryX=0.5;entryY=0;entryDx=0;entryDy=0;rounded=0;" parent="1" source="55" target="56" edge="1">
                    <mxGeometry relative="1" as="geometry"/>
                </mxCell>
                <mxCell id="55" value="" style="aspect=fixed;pointerEvents=1;shadow=0;dashed=0;html=1;strokeColor=none;labelPosition=center;verticalLabelPosition=bottom;verticalAlign=top;align=center;fillColor=light-dark(#5c5c5c, #bfd3ff);shape=mxgraph.mscae.enterprise.tool;rounded=0;gradientColor=none;strokeWidth=1;fillStyle=solid;" parent="1" vertex="1">
                    <mxGeometry x="1375" y="549" width="50" height="45" as="geometry"/>
                </mxCell>
                <mxCell id="56" value="" style="rhombus;whiteSpace=wrap;html=1;rounded=0;" parent="1" vertex="1">
                    <mxGeometry x="1360" y="664" width="80" height="80" as="geometry"/>
                </mxCell>
                <mxCell id="57" value="" style="aspect=fixed;pointerEvents=1;shadow=0;dashed=0;html=1;strokeColor=none;labelPosition=center;verticalLabelPosition=bottom;verticalAlign=top;align=center;fillColor=light-dark(#5c5c5c, #bfd3ff);shape=mxgraph.mscae.enterprise.tool;rounded=0;gradientColor=none;strokeWidth=1;fillStyle=solid;" parent="1" vertex="1">
                    <mxGeometry x="1305" y="814" width="50" height="45" as="geometry"/>
                </mxCell>
                <mxCell id="58" style="edgeStyle=orthogonal;html=1;exitX=0;exitY=1;exitDx=0;exitDy=0;entryX=0.5;entryY=0;entryDx=0;entryDy=0;rounded=0;" parent="1" source="56" target="57" edge="1">
                    <mxGeometry relative="1" as="geometry"/>
                </mxCell>
                <mxCell id="59" value="" style="aspect=fixed;pointerEvents=1;shadow=0;dashed=0;html=1;strokeColor=none;labelPosition=center;verticalLabelPosition=bottom;verticalAlign=top;align=center;fillColor=light-dark(#5c5c5c, #bfd3ff);shape=mxgraph.mscae.enterprise.tool;rounded=0;gradientColor=none;strokeWidth=1;fillStyle=solid;" parent="1" vertex="1">
                    <mxGeometry x="1440" y="814" width="50" height="45" as="geometry"/>
                </mxCell>
                <mxCell id="60" style="edgeStyle=orthogonal;html=1;exitX=1;exitY=1;exitDx=0;exitDy=0;entryX=0.5;entryY=0;entryDx=0;entryDy=0;rounded=0;" parent="1" source="56" target="59" edge="1">
                    <mxGeometry relative="1" as="geometry"/>
                </mxCell>
                <mxCell id="62" value="..." style="text;html=1;align=center;verticalAlign=middle;whiteSpace=wrap;rounded=0;fontSize=48;" parent="1" vertex="1">
                    <mxGeometry x="1250" y="898" width="60" height="30" as="geometry"/>
                </mxCell>
                <mxCell id="64" value="" style="ellipse;html=1;shape=endState;fillColor=#dae8fc;strokeColor=#6c8ebf;rounded=0;" parent="1" vertex="1">
                    <mxGeometry x="65" y="990" width="50" height="50" as="geometry"/>
                </mxCell>
                <mxCell id="72" value="&lt;font style=&quot;font-size: 28px;&quot;&gt;Level 1&lt;br&gt;Single tool&lt;/font&gt;" style="text;html=1;align=center;verticalAlign=middle;whiteSpace=wrap;rounded=0;fontSize=48;fontFamily=Helvetica Neue;fontStyle=0;" parent="1" vertex="1">
                    <mxGeometry x="-80" y="124" width="340" height="30" as="geometry"/>
                </mxCell>
                <mxCell id="73" value="&lt;span style=&quot;font-size: 28px;&quot;&gt;Level 2&lt;/span&gt;&lt;div&gt;&lt;span style=&quot;font-size: 28px;&quot;&gt;Multiple tools&lt;/span&gt;&lt;/div&gt;" style="text;html=1;align=center;verticalAlign=middle;whiteSpace=wrap;rounded=0;fontSize=48;fontFamily=Helvetica Neue;fontStyle=0;" parent="1" vertex="1">
                    <mxGeometry x="299" y="124" width="340" height="30" as="geometry"/>
                </mxCell>
                <mxCell id="74" value="&lt;span style=&quot;font-size: 28px;&quot;&gt;Level 3&lt;/span&gt;&lt;div&gt;&lt;span style=&quot;font-size: 28px;&quot;&gt;Multiple fixed steps&lt;/span&gt;&lt;/div&gt;" style="text;html=1;align=center;verticalAlign=middle;whiteSpace=wrap;rounded=0;fontSize=48;fontFamily=Helvetica Neue;fontStyle=0;" parent="1" vertex="1">
                    <mxGeometry x="660" y="124" width="340" height="30" as="geometry"/>
                </mxCell>
                <mxCell id="75" value="&lt;span style=&quot;font-size: 28px;&quot;&gt;Level 4&lt;/span&gt;&lt;div&gt;&lt;span style=&quot;font-size: 28px;&quot;&gt;Multiple autonomous steps&lt;/span&gt;&lt;/div&gt;" style="text;html=1;align=center;verticalAlign=middle;whiteSpace=wrap;rounded=0;fontSize=48;fontFamily=Helvetica Neue;fontStyle=0;" parent="1" vertex="1">
                    <mxGeometry x="1110" y="124" width="360" height="30" as="geometry"/>
                </mxCell>
                <mxCell id="76" value="" style="ellipse;html=1;shape=endState;fillColor=#dae8fc;strokeColor=#6c8ebf;rounded=0;" parent="1" vertex="1">
                    <mxGeometry x="439" y="990" width="50" height="50" as="geometry"/>
                </mxCell>
                <mxCell id="77" value="" style="ellipse;html=1;shape=endState;fillColor=#dae8fc;strokeColor=#6c8ebf;rounded=0;" parent="1" vertex="1">
                    <mxGeometry x="805" y="990" width="50" height="50" as="geometry"/>
                </mxCell>
                <mxCell id="78" value="" style="ellipse;html=1;shape=endState;fillColor=#dae8fc;strokeColor=#6c8ebf;rounded=0;" parent="1" vertex="1">
                    <mxGeometry x="1255" y="990" width="50" height="50" as="geometry"/>
                </mxCell>
                <mxCell id="79" value="&lt;span style=&quot;font-size: 28px;&quot;&gt;Start&lt;/span&gt;" style="text;html=1;align=center;verticalAlign=middle;whiteSpace=wrap;rounded=0;fontSize=48;fontFamily=Helvetica Neue;fontStyle=0;" vertex="1" parent="1">
                    <mxGeometry x="-200" y="240" width="340" height="30" as="geometry"/>
                </mxCell>
                <mxCell id="80" value="&lt;span style=&quot;font-size: 28px;&quot;&gt;Tool call&lt;/span&gt;" style="text;html=1;align=center;verticalAlign=middle;whiteSpace=wrap;rounded=0;fontSize=48;fontFamily=Helvetica Neue;fontStyle=0;" vertex="1" parent="1">
                    <mxGeometry x="-210" y="585" width="340" height="30" as="geometry"/>
                </mxCell>
                <mxCell id="81" value="&lt;span style=&quot;font-size: 28px;&quot;&gt;Decision&lt;/span&gt;" style="text;html=1;align=center;verticalAlign=middle;whiteSpace=wrap;rounded=0;fontSize=48;fontFamily=Helvetica Neue;fontStyle=0;" vertex="1" parent="1">
                    <mxGeometry x="230" y="437.5" width="226" height="30" as="geometry"/>
                </mxCell>
                <mxCell id="83" value="&lt;span style=&quot;font-size: 28px;&quot;&gt;Result&lt;/span&gt;" style="text;html=1;align=center;verticalAlign=middle;whiteSpace=wrap;rounded=0;fontSize=48;fontFamily=Helvetica Neue;fontStyle=0;" vertex="1" parent="1">
                    <mxGeometry x="-200" y="990" width="340" height="30" as="geometry"/>
                </mxCell>
                <mxCell id="84" value="&lt;span style=&quot;font-size: 28px;&quot;&gt;Varying number of steps&lt;/span&gt;" style="text;html=1;align=center;verticalAlign=middle;whiteSpace=wrap;rounded=0;fontSize=48;fontFamily=Helvetica Neue;fontStyle=0;" vertex="1" parent="1">
                    <mxGeometry x="1070" y="938" width="420" height="30" as="geometry"/>
                </mxCell>
                <mxCell id="85" value="..." style="text;html=1;align=center;verticalAlign=middle;whiteSpace=wrap;rounded=0;fontSize=48;" vertex="1" parent="1">
                    <mxGeometry x="800" y="898" width="60" height="30" as="geometry"/>
                </mxCell>
                <mxCell id="86" value="&lt;span style=&quot;font-size: 28px;&quot;&gt;Fixed number of steps&lt;/span&gt;" style="text;html=1;align=center;verticalAlign=middle;whiteSpace=wrap;rounded=0;fontSize=48;fontFamily=Helvetica Neue;fontStyle=0;" vertex="1" parent="1">
                    <mxGeometry x="620" y="938" width="420" height="30" as="geometry"/>
                </mxCell>
            </root>
        </mxGraphModel>
    </diagram>
</mxfile>
